<?xml version="1.0" encoding="UTF-8" standalone="no"?>
<!DOCTYPE svg PUBLIC "-//W3C//DTD SVG 1.1//EN" "http://www.w3.org/Graphics/SVG/1.1/DTD/svg11.dtd">
<svg width="100%" height="100%" viewBox="0 0 14 14" version="1.1" xmlns="http://www.w3.org/2000/svg" xmlns:xlink="http://www.w3.org/1999/xlink" xml:space="preserve" xmlns:serif="http://www.serif.com/" style="fill-rule:evenodd;clip-rule:evenodd;stroke-linejoin:round;stroke-miterlimit:2;">
    <g transform="matrix(1,0,0,1,-1232.9,-5150.65)">
        <g transform="matrix(1,0,0,1,1231.26,5148.64)">
            <path d="M1.638,8.674C1.638,4.992 4.623,2.007 8.305,2.007C10.073,2.007 11.769,2.71 13.019,3.96C14.269,5.21 14.972,6.906 14.972,8.674C14.972,12.356 11.987,15.341 8.305,15.341C4.623,15.341 1.638,12.356 1.638,8.674ZM8.305,9.341L10.972,9.341C11.34,9.341 11.638,9.042 11.638,8.674C11.638,8.306 11.34,8.007 10.972,8.007L8.972,8.007L8.972,6.007C8.972,5.639 8.673,5.341 8.305,5.341C7.937,5.341 7.638,5.639 7.638,6.007L7.638,8.674C7.638,9.042 7.937,9.341 8.305,9.341Z" style="fill:rgb(139,172,217);"/>
        </g>
    </g>
</svg>
